<?xml version="1.0" encoding="UTF-8"?>
<svg id="Layer_2" data-name="Layer 2" xmlns="http://www.w3.org/2000/svg" viewBox="0 0 58.05 43.99">
  <defs>
    <style>
      .cls-1 {
        stroke: #fc3;
        stroke-miterlimit: 10;
        stroke-width: 2px;
      }

      .cls-1, .cls-2 {
        fill: #fc3;
      }

      .cls-3 {
        fill: #b5b5b5;
      }

      .cls-3, .cls-2 {
        stroke-width: 0px;
      }
    </style>
  </defs>
  <g id="Layer_1-2" data-name="Layer 1">
    <g>
      <path class="cls-1" d="M12.99,26.1c-1.8-1.19-2.22-4.43-2.26-4.78-.27-2.29.5-4.02.81-4.7.46-.99,1.72-3.27,4.44-4.52,1.71-.78,3.31-.84,4.26-.78,3.31.21,7.24,2.33,7.7,4.93.9,5-10.88,12.54-14.96,9.85Z"/>
      <path class="cls-3" d="M12.34,26.47c-1.43,1.84-2.29,4.14-2.29,6.65,0,5.99,4.84,10.84,10.81,10.87h28.13c5,0,9.06-4.05,9.06-9.05s-3.75-8.74-8.49-9.03c-1.44-6.74-7.43-11.8-14.6-11.8-2.19,0-4.26.47-6.13,1.31"/>
      <rect class="cls-2" x="18.97" width="2" height="7.97"/>
      <rect class="cls-2" y="18.99" width="7.97" height="2"/>
      <rect class="cls-2" x="7.71" y="4.78" width="2" height="7.97" transform="translate(-3.65 8.73) rotate(-45)"/>
      <rect class="cls-2" x="27.25" y="7.77" width="7.97" height="2" transform="translate(2.95 24.66) rotate(-45)"/>
    </g>
  </g>
</svg>