<?xml version="1.0" encoding="UTF-8"?>
<svg id="Layer_2" data-name="Layer 2" xmlns="http://www.w3.org/2000/svg" viewBox="0 0 53 54.51">
  <defs>
    <style>
      .cls-1 {
        fill: #0071bc;
      }

      .cls-1, .cls-2 {
        stroke-width: 0px;
      }

      .cls-2 {
        fill: #b5b5b5;
      }
    </style>
  </defs>
  <g id="Layer_1-2" data-name="Layer 1">
    <g>
      <path class="cls-2" d="M53,22.99c0,5.53-4.48,10-10,10H11.94c-6.6-.03-11.94-5.39-11.94-12s5.37-12,12-12c.27,0,.53.02.8.04C15.52,3.67,21.08,0,27.5,0c7.92,0,14.53,5.58,16.13,13.03,5.23.32,9.37,4.65,9.37,9.96Z"/>
      <polygon class="cls-1" points="25 47.84 25 49.46 25 54.51 27 54.51 27 49.46 27 47.84 27 37.84 25 37.84 25 47.84"/>
      <polygon class="cls-1" points="33 44.51 33 45.97 33 51.17 35 51.17 35 45.97 35 44.51 35 34.51 33 34.51 33 44.51"/>
      <polygon class="cls-1" points="17 44.51 17 46.23 17 51.17 19 51.17 19 46.23 19 44.51 19 34.51 17 34.51 17 44.51"/>
    </g>
  </g>
</svg>