<?xml version="1.0" encoding="UTF-8"?>
<svg id="Layer_2" data-name="Layer 2" xmlns="http://www.w3.org/2000/svg" viewBox="0 0 53 53">
  <defs>
    <style>
      .cls-1 {
        fill: #b5b5b5;
        stroke-width: 0px;
      }
    </style>
  </defs>
  <g id="Layer_1-2" data-name="Layer 1">
    <g>
      <path class="cls-1" d="M53,23c0,5.52-4.47,10-10,10-.04,0-.09-.01-.13-.01h0s-30.93.01-30.93.01h0c-6.6-.04-11.94-5.4-11.94-12.01s5.38-12,12-12c.27,0,.54.03.8.04C15.53,3.68,21.08,0,27.51,0c7.92,0,14.53,5.58,16.12,13.03,5.23.32,9.37,4.65,9.37,9.97Z"/>
      <polygon class="cls-1" points="22 42.02 22 39.39 24.18 40.61 24.86 39.39 22.39 38 24.86 36.61 24.18 35.39 22 36.61 22 34.02 20 34.02 20 36.66 17.75 35.39 17.07 36.61 19.54 38 17.07 39.39 17.75 40.61 20 39.34 20 42.02 22 42.02"/>
      <polygon class="cls-1" points="27.17 46.37 24.99 47.59 24.99 45 22.99 45 22.99 47.64 20.74 46.37 20.06 47.59 22.53 48.98 20.06 50.37 20.74 51.59 22.99 50.33 22.99 53 24.99 53 24.99 50.37 27.17 51.59 27.85 50.37 25.38 48.98 27.85 47.59 27.17 46.37"/>
      <polygon class="cls-1" points="36.18 39.39 34.01 40.61 34.01 38.02 32.01 38.02 32.01 40.66 29.76 39.39 29.07 40.61 31.54 42 29.07 43.39 29.76 44.61 32.01 43.34 32.01 46.02 34.01 46.02 34.01 43.39 36.18 44.61 36.87 43.39 34.4 42 36.87 40.61 36.18 39.39"/>
    </g>
  </g>
</svg>