<?xml version="1.0" encoding="UTF-8"?>
<svg id="Layer_2" data-name="Layer 2" xmlns="http://www.w3.org/2000/svg" viewBox="0 0 14 34">
  <defs>
    <style>
      .cls-1 {
        fill: #000;
        stroke-width: 0px;
      }
    </style>
  </defs>
  <g id="Layer_1-2" data-name="Layer 1">
    <g>
      <path class="cls-1" d="M12,22.11V5c0-2.76-2.24-5-5-5S2,2.24,2,5v17.11c-1.24,1.26-2,2.99-2,4.89,0,3.87,3.13,7,7,7s7-3.13,7-7c0-1.91-.76-3.63-2-4.89ZM7,32c-2.76,0-5-2.24-5-5,0-1.31.51-2.55,1.43-3.5l.57-.58V5c0-1.65,1.35-3,3-3s3,1.35,3,3v17.92l.57.58c.92.94,1.43,2.18,1.43,3.5,0,2.76-2.24,5-5,5Z"/>
      <path class="cls-1" d="M8,24.18v-15.18h-2v15.18c-1.17.41-2.01,1.52-2.01,2.82,0,1.66,1.35,3.01,3.01,3.01s3.01-1.35,3.01-3.01c0-1.31-.84-2.41-2.01-2.82ZM7,28.01c-.56,0-1.01-.45-1.01-1.01s.45-1.01,1.01-1.01,1.01.45,1.01,1.01-.45,1.01-1.01,1.01Z"/>
    </g>
  </g>
</svg>