<?xml version="1.0" encoding="UTF-8"?>
<svg id="Layer_2" data-name="Layer 2" xmlns="http://www.w3.org/2000/svg" viewBox="0 0 53 52">
  <defs>
    <style>
      .cls-1 {
        fill: #0071bc;
      }

      .cls-1, .cls-2, .cls-3 {
        stroke-width: 0px;
      }

      .cls-2 {
        fill: #b5b5b5;
      }

      .cls-3 {
        fill: #fc3;
      }
    </style>
  </defs>
  <g id="Layer_1-2" data-name="Layer 1">
    <g>
      <path class="cls-2" d="M53,23c0,5.52-4.47,10-10,10-.04,0-.09,0-.13,0h0s-30.93,0-30.93,0c-6.6-.04-11.94-5.39-11.94-12s5.38-12,12-12c.27,0,.54.02.8.04C15.53,3.68,21.08,0,27.5,0c7.92,0,14.54,5.59,16.13,13.03,5.23.33,9.37,4.66,9.37,9.97Z"/>
      <rect class="cls-1" x="17.03" y="34.41" width="2" height="11.18" transform="translate(-19.68 17.58) rotate(-35)"/>
      <rect class="cls-1" x="35" y="34.41" width="2" height="11.18" transform="translate(-16.43 27.89) rotate(-35)"/>
      <polygon class="cls-3" points="28.85 44 30.62 44 31.05 44 33.06 44 26.64 34.84 25 35.99 29.21 42 27.44 42 25 42 26.28 43.82 27.39 45.41 32 52 33.64 50.86 29.03 44.26 28.85 44"/>
    </g>
  </g>
</svg>