<?xml version="1.0" encoding="UTF-8"?>
<svg id="Layer_2" data-name="Layer 2" xmlns="http://www.w3.org/2000/svg" viewBox="0 0 48 28">
  <defs>
    <style>
      .cls-1 {
        fill: #b5b5b5;
        stroke-width: 0px;
      }
    </style>
  </defs>
  <g id="Layer_1-2" data-name="Layer 1">
    <g>
      <path class="cls-1" d="M24,16H4c-1.1,0-2-.9-2-2s.9-2,2-2h4v-2h-4c-2.21,0-4,1.79-4,4s1.79,4,4,4h20c2.2,0,4,1.79,4,4s-1.79,4-4,4v2c3.31,0,6-2.69,6-6s-2.69-6-6-6Z"/>
      <path class="cls-1" d="M26,0v2c2.2,0,4,1.79,4,4s-1.79,4-4,4h-15.99v2h15.99c3.31,0,6-2.69,6-6S29.31,0,26,0Z"/>
      <path class="cls-1" d="M32,12v2h5.5v-.05c2.52-.25,4.5-2.36,4.5-4.95,0-2.76-2.24-5-5-5v2c1.65,0,3,1.35,3,3s-1.35,3-3,3c-.04,0-.08-.01-.13-.01h-4.86s0,0,.01.01h-.02Z"/>
      <path class="cls-1" d="M43,16h-11v2h7.02s0,0-.01.01h3.86s.08-.01.13-.01c1.65,0,3,1.35,3,3s-1.35,3-3,3v2c2.76,0,5-2.24,5-5s-2.24-5-5-5Z"/>
    </g>
  </g>
</svg>